<?xml version="1.0" encoding="iso-8859-1"?>
<!-- Generator: Adobe Illustrator 17.1.0, SVG Export Plug-In . SVG Version: 6.00 Build 0)  -->
<!DOCTYPE svg PUBLIC "-//W3C//DTD SVG 1.1//EN" "http://www.w3.org/Graphics/SVG/1.1/DTD/svg11.dtd">
<svg version="1.1" id="Capa_1" xmlns="http://www.w3.org/2000/svg" xmlns:xlink="http://www.w3.org/1999/xlink" x="0px" y="0px"
	 viewBox="0 0 446.012 446.012" style="enable-background:new 0 0 446.012 446.012;" xml:space="preserve" fill="#dddddd">
<path id="XMLID_118_" d="M81.099,313.907c0-4.971,4.029-9,9-9h2.147c4.971,0,9,4.029,9,9s-4.029,9-9,9h-2.147
	C85.128,322.907,81.099,318.878,81.099,313.907z M276.109,124.464c-12.208,4.125-20.412,15.533-20.412,28.39
	c0,16.518,13.438,29.955,29.955,29.955h81.487c16.517,0,29.955-13.438,29.955-29.955c0-12.855-8.202-24.264-20.41-28.389
	c-4.707-1.591-9.816,0.937-11.407,5.646c-1.591,4.709,0.937,9.816,5.646,11.407c4.888,1.651,8.171,6.207,8.171,11.336
	c0,6.592-5.363,11.955-11.955,11.955h-81.487c-6.592,0-11.955-5.363-11.955-11.955c0-5.129,3.285-9.686,8.173-11.337
	c4.709-1.591,7.237-6.698,5.646-11.407C285.926,125.4,280.818,122.875,276.109,124.464z M141.461,387.668
	c-4.71-1.595-9.816,0.937-11.407,5.646c-1.591,4.709,0.937,9.815,5.646,11.406c4.888,1.651,8.172,6.206,8.172,11.335
	c0,6.593-5.362,11.956-11.954,11.956H50.43c-6.592,0-11.955-5.363-11.955-11.956c0-5.128,3.285-9.684,8.174-11.336
	c4.709-1.591,7.237-6.698,5.646-11.407s-6.697-7.234-11.407-5.646c-12.209,4.125-20.412,15.534-20.412,28.389
	c0,16.518,13.438,29.956,29.955,29.956h81.488c16.517,0,29.954-13.438,29.954-29.956C161.872,403.2,153.669,391.792,141.461,387.668
	z M66.446,380.509c-16.037-31.518-25.976-53.652-25.976-66.603c0-27.957,22.746-50.702,50.704-50.702
	c27.957,0,50.702,22.745,50.702,50.702c0,12.96-9.938,35.092-25.974,66.602c0,0-5.735,11.321-6.022,11.923
	c-2.314,4.852-6.621,13.882-18.707,13.882c-12.086,0-16.394-9.029-18.708-13.881C72.18,391.83,66.446,380.509,66.446,380.509z
	 M58.47,313.906c0,11.236,16.831,44.313,24.018,58.438c0,0,7.65,15.326,8.165,15.938c0.319,0.458,0.804,0.209,1.041,0.001
	c0.515-0.612,1.364-2.394,1.94-3.602c0.344-0.721,6.227-12.338,6.227-12.338c7.187-14.121,24.016-47.191,24.016-58.438
	c0-18.032-14.67-32.702-32.702-32.702C73.141,281.204,58.47,295.874,58.47,313.906z M425.536,9v64.51c0,4.971-4.029,9-9,9h-81.141
	v41.483h7.128c4.971,0,9,4.029,9,9s-4.029,9-9,9h-32.255c-4.971,0-9-4.029-9-9s4.029-9,9-9h7.127V73.701
	c-0.001-0.064-0.002-0.127-0.002-0.191s0-0.128,0.002-0.191V9.191c-0.001-0.064-0.002-0.127-0.002-0.191c0-4.971,4.029-9,9-9h90.143
	C421.507,0,425.536,4.029,425.536,9z M407.536,18h-72.141v46.51h72.141V18z M352.028,214.007H93.985
	c-30.608,0-55.509-24.902-55.509-55.511s24.901-55.51,55.509-55.51h181.463c4.971,0,9-4.029,9-9s-4.029-9-9-9H93.985
	c-40.533,0-73.509,32.977-73.509,73.51c0,40.534,32.976,73.511,73.509,73.511h258.043c30.607,0,55.508,24.901,55.508,55.51
	s-24.901,55.51-55.508,55.51H170.564c-4.971,0-9,4.029-9,9s4.029,9,9,9h181.464c40.533,0,73.508-32.977,73.508-73.51
	S392.561,214.007,352.028,214.007z"/>
<g>
</g>
<g>
</g>
<g>
</g>
<g>
</g>
<g>
</g>
<g>
</g>
<g>
</g>
<g>
</g>
<g>
</g>
<g>
</g>
<g>
</g>
<g>
</g>
<g>
</g>
<g>
</g>
<g>
</g>
</svg>
